<?xml version="1.0" standalone="no"?>
<!DOCTYPE svg PUBLIC "-//W3C//DTD SVG 20010904//EN"
 "http://www.w3.org/TR/2001/REC-SVG-20010904/DTD/svg10.dtd">
<svg version="1.0" xmlns="http://www.w3.org/2000/svg"
 width="350.000000pt" height="350.000000pt" viewBox="0 0 350.000000 350.000000"
 preserveAspectRatio="xMidYMid meet">
<metadata>
Created by potrace 1.11, written by Peter Selinger 2001-2013
</metadata>
<g transform="translate(0.000000,350.000000) scale(0.100000,-0.100000)"
fill="#000000" stroke="none">
<path d="M1454 3161 c-33 -20 -76 -72 -88 -105 -6 -17 -19 -106 -19 -131 0 -5
4 -62 9 -125 5 -63 8 -185 8 -270 0 -130 -3 -161 -19 -195 -10 -22 -20 -46
-21 -54 -4 -23 -17 -29 -79 -35 -33 -4 -73 -9 -88 -12 -16 -3 -38 -7 -50 -9
-96 -13 -199 -53 -212 -82 -14 -32 -14 -66 0 -97 7 -17 43 -105 79 -195 49
-121 64 -167 56 -176 -45 -55 18 -225 84 -225 37 0 63 -75 63 -180 2 -222 30
-391 85 -508 17 -35 28 -64 27 -66 -2 -1 -40 -12 -83 -25 -78 -22 -136 -53
-136 -72 0 -6 -19 -28 -42 -49 -24 -21 -41 -41 -38 -43 6 -6 156 8 203 19 l31
6 -27 -32 c-44 -52 -31 -54 93 -20 25 6 70 25 101 40 44 22 60 25 75 17 39
-22 142 -43 200 -41 33 1 92 13 134 28 41 14 79 27 84 28 5 2 8 -19 7 -47 -3
-72 43 -145 123 -194 31 -20 40 -21 47 -10 10 16 1 79 -13 97 -16 19 -1 14 40
-12 33 -22 174 -84 229 -100 18 -6 21 -4 15 16 -5 22 -40 87 -52 98 -14 13
-34 43 -24 37 6 -3 26 -9 45 -12 97 -18 105 -12 47 40 -43 37 -66 49 -200 105
-43 17 -78 33 -78 35 0 1 13 33 28 71 29 69 49 142 56 199 7 56 19 130 23 150
16 66 20 136 17 265 -2 80 -5 154 -6 165 -2 11 10 46 26 78 25 51 29 71 32
160 3 131 -18 230 -81 373 -99 227 -112 261 -125 324 -26 127 -145 450 -209
565 -50 92 -132 184 -186 210 -48 22 -152 20 -191 -4z"/>
</g>
</svg>
